<?xml version="1.0" encoding="UTF-8"?>
<svg version="1.1" xmlns="http://www.w3.org/2000/svg" width="500" height="500">
<path d="M0 0 C165 0 330 0 500 0 C500 165 500 330 500 500 C335 500 170 500 0 500 C0 335 0 170 0 0 Z " fill="#FEFEFE" transform="translate(0,0)"/>
<path d="M0 0 C2.30078125 1.40625 2.30078125 1.40625 4.4375 2.9375 C5.51064453 3.66453125 5.51064453 3.66453125 6.60546875 4.40625 C13.67123857 9.81494434 18.11841018 18.1626851 19.4375 26.9375 C20.42397948 35.50855124 17.7150886 42.7076926 13.6875 50.1875 C11.1589743 53.2779203 8.39912661 55.76992308 5.33984375 58.32421875 C3.43169709 59.87728814 3.43169709 59.87728814 1.89453125 61.6015625 C-3.25391584 66.32212256 -15.82201235 64.01649009 -22.5625 63.9375 C-22.5625 63.2775 -22.5625 62.6175 -22.5625 61.9375 C-23.449375 61.69 -24.33625 61.4425 -25.25 61.1875 C-35.35330765 57.37493108 -41.2141024 47.90077667 -45.69140625 38.58984375 C-48.09506833 31.27106996 -47.68674101 22.21671623 -44.3125 15.3125 C-43.43275712 13.83159948 -42.52054155 12.36899232 -41.5625 10.9375 C-40.985 10.03 -40.4075 9.1225 -39.8125 8.1875 C-29.70082979 -1.92417021 -13.38432718 -6.32789341 0 0 Z " fill="#FEFDFE" transform="translate(280.5625,195.0625)"/>
<path d="M0 0 C0.495 0.99 0.495 0.99 1 2 C0.33613281 1.79503906 -0.32773437 1.59007812 -1.01171875 1.37890625 C-1.89472656 1.10949219 -2.77773438 0.84007812 -3.6875 0.5625 C-4.55761719 0.29566406 -5.42773438 0.02882812 -6.32421875 -0.24609375 C-19.02345272 -3.8241261 -31.06042554 -2.62173467 -42.7578125 3.42578125 C-55.96520266 11.05452751 -63.04448421 21.38002105 -67.57421875 35.83203125 C-70.16969313 49.04752004 -67.09178318 60.9239684 -60.6171875 72.46484375 C-59.20817056 74.4978539 -57.71945378 76.22245656 -56 78 C-55.30390625 78.74636719 -54.6078125 79.49273437 -53.890625 80.26171875 C-44.21663242 89.82506108 -32.49161796 94.1889045 -19.00244141 94.18725586 C-12.85541679 94.11688139 -7.00456857 93.2426373 -1 92 C-0.06414062 91.81308594 0.87171875 91.62617188 1.8359375 91.43359375 C2.55007813 91.29050781 3.26421875 91.14742188 4 91 C-4.76700506 100.72923732 -19.03327783 104.31025214 -31.60546875 105.27734375 C-46.08903792 105.6722066 -59.34500337 101.2631031 -70.3125 91.625 C-71.89474785 90.10360784 -73.45862263 88.56278539 -75 87 C-75.66 86.3503125 -76.32 85.700625 -77 85.03125 C-86.80025823 74.72408186 -90.58304462 60.46547633 -90.4375 46.5625 C-90.42992676 45.54768555 -90.42235352 44.53287109 -90.41455078 43.48730469 C-90.25570659 36.29177886 -89.42707329 30.41229121 -86 24 C-85.61070312 23.11957031 -85.22140625 22.23914063 -84.8203125 21.33203125 C-77.98748839 6.99927298 -65.56546767 -1.93044136 -51.37109375 -8.15234375 C-34.01336874 -14.04690764 -14.92775437 -9.80246535 0 0 Z " fill="#04034E" transform="translate(286,164)"/>
<path d="M0 0 C0.67160156 0.12375 1.34320313 0.2475 2.03515625 0.375 C10.46535821 3.05657518 19.07875201 12.99103345 23.46484375 20.51171875 C27.07118342 27.50488176 29.27545839 33.40070555 29.125 41.375 C29.10695313 42.62023437 29.08890625 43.86546875 29.0703125 45.1484375 C29.04710937 46.08945313 29.02390625 47.03046875 29 48 C27.8701311 45.7720895 26.78506319 43.53419267 25.73828125 41.265625 C20.7985823 30.81782338 15.68154983 23.8039679 5 19 C4.33613281 18.6803125 3.67226563 18.360625 2.98828125 18.03125 C-5.74726857 14.43719521 -17.04567553 14.66108892 -25.9375 17.5625 C-37.26707494 22.41074153 -44.481895 30.76343299 -49.23828125 41.921875 C-52.93350767 52.00321066 -51.68043048 62.38941212 -47.484375 72.08984375 C-42.88992159 81.09739056 -36.32242151 87.90722958 -27 92 C-31.00967661 93.61173276 -33.62759107 92.33733879 -37.5 90.75 C-51.0404531 84.90703108 -60.35974969 73.94298829 -65.875 60.4375 C-69.97840679 48.1934636 -69.18227165 35.85802667 -63.67578125 24.1953125 C-56.33470619 9.9755923 -46.0603532 2.3439963 -31 -3 C-20.52480695 -6.29580222 -9.96786374 -3.53560979 0 0 Z " fill="#FB5658" transform="translate(285,165)"/>
<path d="M0 0 C3.96 0 7.92 0 12 0 C14.66666667 9.33333333 17.33333333 18.66666667 20 28 C20.21148682 27.10075806 20.21148682 27.10075806 20.42724609 26.18334961 C21.07479218 23.43432822 21.72487704 20.68591307 22.375 17.9375 C22.59671875 16.99455078 22.8184375 16.05160156 23.046875 15.08007812 C24.24745705 10.01291567 25.51820858 4.99239072 27 0 C30.96 0 34.92 0 39 0 C40.56392455 8.04304056 41.43874068 16.02711689 42.125 24.1875 C42.21249512 25.2084375 42.29999023 26.229375 42.39013672 27.28125 C42.86783231 33.20967338 43.08646075 39.05273545 43 45 C40.36 45 37.72 45 35 45 C34.91435791 44.30849854 34.82871582 43.61699707 34.74047852 42.90454102 C34.35223699 39.78995789 33.95745795 36.67623823 33.5625 33.5625 C33.42779297 32.47388672 33.29308594 31.38527344 33.15429688 30.26367188 C33.02216797 29.22919922 32.89003906 28.19472656 32.75390625 27.12890625 C32.63345947 26.17056885 32.5130127 25.21223145 32.38891602 24.22485352 C32.22559083 22.0339958 32.22559083 22.0339958 31 21 C29.02 28.92 27.04 36.84 25 45 C21.7 45 18.4 45 15 45 C14.20701081 42.167031 13.41557728 39.33364215 12.625 36.5 C12.29242188 35.31277344 12.29242188 35.31277344 11.953125 34.1015625 C10.55518611 29.08542885 9.24111785 24.05726524 8 19 C6.54107999 27.65437017 5.54479018 36.24034738 5 45 C2.03 45 -0.94 45 -4 45 C-3.85790331 42.3122562 -3.7114277 39.62486698 -3.5625 36.9375 C-3.52318359 36.18533203 -3.48386719 35.43316406 -3.44335938 34.65820312 C-3.18419281 30.05301259 -2.7200579 25.55633276 -2 21 C-5.46941546 21.45822468 -8.67395049 21.89131683 -12 23 C-12 30.26 -12 37.52 -12 45 C-14.64 45 -17.28 45 -20 45 C-20 34.11 -20 23.22 -20 12 C-17.69 12 -15.38 12 -13 12 C-12.01 13.485 -12.01 13.485 -11 15 C-10.278125 14.505 -9.55625 14.01 -8.8125 13.5 C-5.85151341 11.92080715 -4.28746971 11.71821688 -1 12 C-1.020625 10.948125 -1.04125 9.89625 -1.0625 8.8125 C-1 5 -1 5 0 0 Z " fill="#FE5A5A" transform="translate(268,280)"/>
<path d="M0 0 C1.10021484 0.47566406 1.10021484 0.47566406 2.22265625 0.9609375 C11.29751865 5.35049358 18.39388991 13.44470344 22.18359375 22.75390625 C25.0476177 34.14148472 23.99558671 45.8348936 18 56 C12.99828348 64.07383683 6.30151746 69.64377002 -2.375 73.5 C-5.0812381 74.01547392 -6.41189154 73.74889947 -9 73 C-8.48050781 72.63648438 -7.96101563 72.27296875 -7.42578125 71.8984375 C1.69176357 65.32571573 5.50858741 58.47423778 9 48 C10.02120578 38.39673799 7.30255231 29.84002378 1.734375 22.0390625 C-3.00399128 16.46828052 -9.65446342 11.80231733 -17.01049805 10.69824219 C-19.14168585 10.56286501 -21.23980793 10.53249112 -23.375 10.5625 C-24.12378418 10.56934814 -24.87256836 10.57619629 -25.64404297 10.58325195 C-31.50662952 10.75335743 -36.01153299 11.80442811 -41 15 C-41.62003906 15.33902344 -42.24007812 15.67804688 -42.87890625 16.02734375 C-49.07347092 19.78689596 -52.7459155 26.2377465 -55 33 C-55.22179785 34.89212737 -55.40614015 36.78884472 -55.5625 38.6875 C-55.64628906 39.68136719 -55.73007813 40.67523438 -55.81640625 41.69921875 C-55.87699219 42.45847656 -55.93757812 43.21773437 -56 44 C-56.33 44 -56.66 44 -57 44 C-57.69703599 30.73695402 -55.52530666 20.41981925 -47 10 C-35.13204128 -2.68643863 -16.09426042 -7.71771552 0 0 Z " fill="#CC6EE4" transform="translate(290,183)"/>
<path d="M0 0 C9 0 9 0 11.04394531 1.6171875 C11.46772461 2.36226563 11.89150391 3.10734375 12.328125 3.875 C12.81796875 4.69613281 13.3078125 5.51726562 13.8125 6.36328125 C14.286875 7.23339844 14.76125 8.10351562 15.25 9 C15.73984375 9.83917969 16.2296875 10.67835938 16.734375 11.54296875 C17.66283287 13.13566908 18.57779284 14.73638374 19.47363281 16.34765625 C21.55067002 19.95689045 23.79297247 23.46875594 26 27 C26.33 18.42 26.66 9.84 27 1 C29.97 1 32.94 1 36 1 C36 15.85 36 30.7 36 46 C27 46 27 46 24.74072266 44.05981445 C24.2204248 43.1699585 23.70012695 42.28010254 23.1640625 41.36328125 C22.57496094 40.39326172 21.98585938 39.42324219 21.37890625 38.42382812 C20.80011719 37.39708984 20.22132813 36.37035156 19.625 35.3125 C19.02300781 34.30509766 18.42101562 33.29769531 17.80078125 32.25976562 C16.17099287 29.52237162 14.58421456 26.76389887 13 24 C12.01 22.35 11.02 20.7 10 19 C9.67 27.91 9.34 36.82 9 46 C6.03 46 3.06 46 0 46 C0 30.82 0 15.64 0 0 Z " fill="#FF5D5D" transform="translate(360,279)"/>
<path d="M0 0 C3.63 0 7.26 0 11 0 C12.99755648 6.0860203 14.99128985 12.17327426 16.98144531 18.26171875 C17.65942364 20.33400534 18.33845697 22.40594707 19.01855469 24.47753906 C19.99429547 27.45027702 20.96627133 30.42422281 21.9375 33.3984375 C22.24373291 34.32868744 22.54996582 35.25893738 22.86547852 36.21737671 C23.14576904 37.07811798 23.42605957 37.93885925 23.71484375 38.82568359 C23.96355225 39.58513275 24.21226074 40.34458191 24.46850586 41.12704468 C25 43 25 43 25 45 C22.03 45 19.06 45 16 45 C13 38.375 13 38.375 13 35 C7.72 35 2.44 35 -3 35 C-3.66 38.3 -4.32 41.6 -5 45 C-8.3 45 -11.6 45 -15 45 C-12.52103252 35.21460204 -9.20966863 25.80608012 -5.8125 16.3125 C-5.24767855 14.72474035 -4.68322268 13.13685061 -4.11914062 11.54882812 C-2.7502997 7.69770737 -1.37653812 3.84837584 0 0 Z " fill="#FF5C5C" transform="translate(431,280)"/>
<path d="M0 0 C3.63 0 7.26 0 11 0 C12.99755648 6.0860203 14.99128985 12.17327426 16.98144531 18.26171875 C17.65942364 20.33400534 18.33845697 22.40594707 19.01855469 24.47753906 C19.99429547 27.45027702 20.96627133 30.42422281 21.9375 33.3984375 C22.24373291 34.32868744 22.54996582 35.25893738 22.86547852 36.21737671 C23.14576904 37.07811798 23.42605957 37.93885925 23.71484375 38.82568359 C23.96355225 39.58513275 24.21226074 40.34458191 24.46850586 41.12704468 C25 43 25 43 25 45 C22.03 45 19.06 45 16 45 C13 38.375 13 38.375 13 35 C7.72 35 2.44 35 -3 35 C-3.66 38.3 -4.32 41.6 -5 45 C-8.3 45 -11.6 45 -15 45 C-12.52103252 35.21460204 -9.20966863 25.80608012 -5.8125 16.3125 C-5.24767855 14.72474035 -4.68322268 13.13685061 -4.11914062 11.54882812 C-2.7502997 7.69770737 -1.37653812 3.84837584 0 0 Z " fill="#FF5C5C" transform="translate(331,280)"/>
<path d="M0 0 C0.80308594 -0.02900391 1.60617188 -0.05800781 2.43359375 -0.08789062 C6.52356644 -0.1316877 8.59026134 -0.02431591 12.1328125 2.20703125 C15.39677129 5.65658769 15.24445142 7.74989518 15.22265625 12.4140625 C15.21943359 13.62578125 15.21621094 14.8375 15.21289062 16.0859375 C15.20451172 17.35695313 15.19613281 18.62796875 15.1875 19.9375 C15.18298828 21.21625 15.17847656 22.495 15.17382812 23.8125 C15.16201203 26.97921292 15.14553815 30.14583356 15.125 33.3125 C12.815 33.3125 10.505 33.3125 8.125 33.3125 C7.795 32.3225 7.465 31.3325 7.125 30.3125 C6.135 30.8075 5.145 31.3025 4.125 31.8125 C-0.15829827 33.61599401 -3.24002243 33.91056162 -7.875 33.3125 C-10.875 31.5 -10.875 31.5 -12.875 28.3125 C-13.67983746 23.49772013 -14.10980993 19.16315971 -11.32421875 14.98828125 C-7.97433216 12.69625358 -5.02626864 12.87075523 -1.125 13.0625 C-0.42761719 13.08054687 0.26976562 13.09859375 0.98828125 13.1171875 C2.70111539 13.16411446 4.41323824 13.23585395 6.125 13.3125 C5.465 11.3325 4.805 9.3525 4.125 7.3125 C-1.155 7.3125 -6.435 7.3125 -11.875 7.3125 C-11.875 5.3325 -11.875 3.3525 -11.875 1.3125 C-7.87750195 -0.01999935 -4.18698778 0.04992434 0 0 Z " fill="#080808" transform="translate(139.875,291.6875)"/>
<path d="M0 0 C1.29808594 -0.02835937 2.59617188 -0.05671875 3.93359375 -0.0859375 C8.06920825 0.43936122 9.65783934 1.45405153 12.5625 4.375 C13.70523574 6.66047148 13.79377257 8.14379905 13.875 10.6875 C13.91238281 11.44675781 13.94976562 12.20601563 13.98828125 12.98828125 C13.36524833 16.48069515 12.18910221 18.00231654 9.5625 20.375 C6.75010674 20.74898847 4.58657845 20.85793015 1.8125 20.6875 C1.11511719 20.66494141 0.41773438 20.64238281 -0.30078125 20.61914062 C-2.01394935 20.56047048 -3.72600623 20.47079256 -5.4375 20.375 C-5.1075 22.025 -4.7775 23.675 -4.4375 25.375 C1.1725 25.705 6.7825 26.035 12.5625 26.375 C12.5625 28.355 12.5625 30.335 12.5625 32.375 C8.21468438 33.58286226 4.05192801 33.67111229 -0.4375 33.75 C-1.64792969 33.80607422 -1.64792969 33.80607422 -2.8828125 33.86328125 C-8.82054704 33.95146543 -8.82054704 33.95146543 -11.9375 31.0390625 C-14.71090188 26.1133852 -14.65257359 21.99217759 -14.6875 16.5 C-14.708125 15.69691406 -14.72875 14.89382813 -14.75 14.06640625 C-14.78095828 9.3684871 -14.5985334 6.11982785 -11.4375 2.375 C-7.96465406 -0.22372826 -4.218177 0.04180552 0 0 Z " fill="#080808" transform="translate(198.4375,291.625)"/>
<path d="M0 0 C1.794375 -0.04253906 1.794375 -0.04253906 3.625 -0.0859375 C7.58821628 0.45533509 9.18702559 1.59305104 12 4.375 C13.7196266 7.8142532 13.38219964 11.60664562 13 15.375 C11.27310955 18.66431514 10.5579199 19.1890267 7 20.375 C4.60509014 20.44470052 2.20832309 20.45948003 -0.1875 20.4375 C-1.45980469 20.42847656 -2.73210937 20.41945313 -4.04296875 20.41015625 C-5.50669922 20.39275391 -5.50669922 20.39275391 -7 20.375 C-6.34 22.025 -5.68 23.675 -5 25.375 C0.61 25.705 6.22 26.035 12 26.375 C12 28.355 12 30.335 12 32.375 C7.475543 33.47238321 3.06878995 33.66254216 -1.5625 33.75 C-2.69461914 33.80607422 -2.69461914 33.80607422 -3.84960938 33.86328125 C-7.78346485 33.92566839 -9.55989507 33.79208835 -12.46484375 31.0390625 C-15.29429825 26.12891499 -15.21502606 21.9996523 -15.25 16.5 C-15.270625 15.69691406 -15.29125 14.89382813 -15.3125 14.06640625 C-15.34329656 9.39302842 -15.21617618 6.05262755 -12 2.375 C-8.11249894 0.14778585 -4.42359978 0.0476681 0 0 Z " fill="#070707" transform="translate(231,291.625)"/>
<path d="M0 0 C0 2.31 0 4.62 0 7 C-1.26457031 6.95359375 -2.52914062 6.9071875 -3.83203125 6.859375 C-5.49216391 6.82185788 -7.15232208 6.78545765 -8.8125 6.75 C-9.64587891 6.71648437 -10.47925781 6.68296875 -11.33789062 6.6484375 C-15.97895761 6.50774315 -15.97895761 6.50774315 -20.05078125 8.42578125 C-21.52150007 12.41427386 -21.43253826 16.22122396 -21.375 20.4375 C-21.38660156 21.28376953 -21.39820312 22.13003906 -21.41015625 23.00195312 C-21.39322456 26.60558173 -21.12655064 29.59378808 -20.05078125 33.046875 C-16.76068383 36.18030111 -13.19582491 35.78198962 -8.8125 35.8125 C-7.96751953 35.83763672 -7.12253906 35.86277344 -6.25195312 35.88867188 C-4.1684695 35.94752734 -2.08418373 35.97662995 0 36 C0 38.31 0 40.62 0 43 C-4.11439907 44.13640686 -8.12923306 44.25778651 -12.375 44.3125 C-13.1175 44.34150391 -13.86 44.37050781 -14.625 44.40039062 C-19.87776251 44.46071387 -22.8676087 43.5241334 -27 40 C-31.97674023 30.56135474 -32.61855373 18.41999631 -30.3515625 8.02734375 C-28.66069784 3.69901924 -26.47559904 0.62774345 -22.11328125 -1.41796875 C-14.73297064 -3.45062361 -7.23295979 -1.89716978 0 0 Z " fill="#080808" transform="translate(124,281)"/>
<path d="M0 0 C2.97 0 5.94 0 9 0 C9 15.18 9 30.36 9 46 C6.03 46 3.06 46 0 46 C0 30.82 0 15.64 0 0 Z " fill="#FF6161" transform="translate(402,279)"/>
<path d="M0 0 C2.64 0 5.28 0 8 0 C8.66 0.99 9.32 1.98 10 3 C10.495 2.505 10.99 2.01 11.5 1.5 C15.11630158 -0.66978095 17.82231616 -0.20888419 22 0 C22 2.64 22 5.28 22 8 C21.30132812 8.13277344 20.60265625 8.26554687 19.8828125 8.40234375 C18.97273438 8.57894531 18.06265625 8.75554687 17.125 8.9375 C16.22007812 9.11152344 15.31515625 9.28554688 14.3828125 9.46484375 C12.00043683 9.89963701 12.00043683 9.89963701 10 11 C9.67 18.26 9.34 25.52 9 33 C6.03 33 3.06 33 0 33 C0 22.11 0 11.22 0 0 Z " fill="#090909" transform="translate(159,292)"/>
<path d="M0 0 C2.31 0 4.62 0 7 0 C7.66 0.99 8.32 1.98 9 3 C10.0828125 2.2575 10.0828125 2.2575 11.1875 1.5 C14.14848659 -0.07919285 15.71253029 -0.28178312 19 0 C18.67 2.64 18.34 5.28 18 8 C16.906875 8.309375 15.81375 8.61875 14.6875 8.9375 C12.44592006 9.58337897 10.2130649 10.2623117 8 11 C8 18.26 8 25.52 8 33 C5.36 33 2.72 33 0 33 C0 22.11 0 11.22 0 0 Z " fill="#020202" transform="translate(248,292)"/>
<path d="M0 0 C1.2375 0.1546875 1.2375 0.1546875 2.5 0.3125 C3.16 1.3025 3.82 2.2925 4.5 3.3125 C4.83 2.3225 5.16 1.3325 5.5 0.3125 C6.16 0.3125 6.82 0.3125 7.5 0.3125 C7.5 2.6225 7.5 4.9325 7.5 7.3125 C8.82 7.3125 10.14 7.3125 11.5 7.3125 C11.5 5.0025 11.5 2.6925 11.5 0.3125 C12.16 0.3125 12.82 0.3125 13.5 0.3125 C13.5 3.2825 13.5 6.2525 13.5 9.3125 C10.15747276 9.38677838 7.6964086 9.37796953 4.5 8.3125 C2.7365625 8.5909375 2.7365625 8.5909375 0.9375 8.875 C-0.196875 9.019375 -1.33125 9.16375 -2.5 9.3125 C-4.5 7.3125 -4.5 7.3125 -4.75 4.8125 C-4.40047575 1.3172575 -3.47557682 0.4344471 0 0 Z " fill="#5C5C5C" transform="translate(280.5,331.6875)"/>
<path d="M0 0 C0.66 0 1.32 0 2 0 C2.33 1.32 2.66 2.64 3 4 C3.99 4 4.98 4 6 4 C6.66 5.65 7.32 7.3 8 9 C8.33 7.35 8.66 5.7 9 4 C9.66 4 10.32 4 11 4 C10.54091176 8.68270009 10.03245489 12.29366624 7 16 C3 16 3 16 1.26171875 14.390625 C-0.35173224 11.33355996 -0.29959341 9.18753138 -0.1875 5.75 C-0.14689453 4.13351562 -0.14689453 4.13351562 -0.10546875 2.484375 C-0.07066406 1.66453125 -0.03585937 0.8446875 0 0 Z " fill="#A3A3A3" transform="translate(343,328)"/>
<path d="M0 0 C2.31005869 2.31005869 2.72174103 3.83083657 3.625 6.9375 C3.88539063 7.81277344 4.14578125 8.68804687 4.4140625 9.58984375 C5 12 5 12 5 15 C2.03 15 -0.94 15 -4 15 C-3.50341703 9.33895411 -2.45489316 5.12325529 0 0 Z " fill="#FFF1F1" transform="translate(436,292)"/>
<path d="M0 0 C2.31005869 2.31005869 2.72174103 3.83083657 3.625 6.9375 C3.88539063 7.81277344 4.14578125 8.68804687 4.4140625 9.58984375 C5 12 5 12 5 15 C2.03 15 -0.94 15 -4 15 C-3.50341703 9.33895411 -2.45489316 5.12325529 0 0 Z " fill="#FFF1F1" transform="translate(336,292)"/>
<path d="M0 0 C1.23556641 0.01740234 1.23556641 0.01740234 2.49609375 0.03515625 C3.32238281 0.04417969 4.14867187 0.05320312 5 0.0625 C5.63808594 0.07410156 6.27617187 0.08570313 6.93359375 0.09765625 C7.12109375 2.97265625 7.12109375 2.97265625 6.93359375 6.09765625 C3.28941635 8.52710785 1.22118103 8.259452 -3.06640625 8.09765625 C-3.10882348 5.7647085 -3.10733562 3.43063058 -3.06640625 1.09765625 C-2.06640625 0.09765625 -2.06640625 0.09765625 0 0 Z " fill="#F4F4F4" transform="translate(139.06640625,309.90234375)"/>
<path d="M0 0 C0.66 0 1.32 0 2 0 C2 4.29 2 8.58 2 13 C0.02 13 -1.96 13 -4 13 C-6 11 -6 11 -6.25 8.5 C-6 6 -6 6 -4 4 C-2.68 4 -1.36 4 0 4 C0 2.68 0 1.36 0 0 Z " fill="#303030" transform="translate(234,328)"/>
<path d="M0 0 C1.98 0 3.96 0 6 0 C6.66 0.66 7.32 1.32 8 2 C7.625 5.625 7.625 5.625 7 9 C5.35 9 3.7 9 2 9 C2 9.99 2 10.98 2 12 C1.34 12 0.68 12 0 12 C0 8.04 0 4.08 0 0 Z " fill="#2F2F2F" transform="translate(182,332)"/>
<path d="M0 0 C1.21816406 0.03480469 1.21816406 0.03480469 2.4609375 0.0703125 C3.68683594 0.09738281 3.68683594 0.09738281 4.9375 0.125 C5.87722656 0.15980469 5.87722656 0.15980469 6.8359375 0.1953125 C6.87848106 2.19485996 6.87674533 4.19572886 6.8359375 6.1953125 C5.8359375 7.1953125 5.8359375 7.1953125 3.55078125 7.29296875 C2.17599609 7.27556641 2.17599609 7.27556641 0.7734375 7.2578125 C-0.14566406 7.24878906 -1.06476563 7.23976563 -2.01171875 7.23046875 C-2.72199219 7.21886719 -3.43226563 7.20726562 -4.1640625 7.1953125 C-4.2890625 4.8203125 -4.2890625 4.8203125 -4.1640625 2.1953125 C-2.1640625 0.1953125 -2.1640625 0.1953125 0 0 Z " fill="#EEEEEE" transform="translate(196.1640625,298.8046875)"/>
<path d="M0 0 C1.98 0 3.96 0 6 0 C8 2 8 2 8.25 4.5 C8 7 8 7 6 9 C4.68 9 3.36 9 2 9 C2 9.99 2 10.98 2 12 C1.34 12 0.68 12 0 12 C0 8.04 0 4.08 0 0 Z " fill="#272727" transform="translate(172,332)"/>
<path d="M0 0 C5.97873264 0.11935764 5.97873264 0.11935764 7.08984375 1.23046875 C7.21484375 3.73046875 7.21484375 3.73046875 7.08984375 6.23046875 C6.08984375 7.23046875 6.08984375 7.23046875 3.8046875 7.328125 C2.42990234 7.31072266 2.42990234 7.31072266 1.02734375 7.29296875 C0.10824219 7.28394531 -0.81085938 7.27492188 -1.7578125 7.265625 C-2.46808594 7.25402344 -3.17835938 7.24242187 -3.91015625 7.23046875 C-4.03515625 4.85546875 -4.03515625 4.85546875 -3.91015625 2.23046875 C-1.91015625 0.23046875 -1.91015625 0.23046875 0 0 Z " fill="#F3F3F3" transform="translate(227.91015625,298.76953125)"/>
<path d="M0 0 C0.66 0 1.32 0 2 0 C2.67354499 1.43429001 3.33859701 2.87257057 4 4.3125 C4.556875 5.51326172 4.556875 5.51326172 5.125 6.73828125 C6 9 6 9 6 12 C5.34 12 4.68 12 4 12 C4 11.01 4 10.02 4 9 C2.02 9 0.04 9 -2 9 C-2.33 9.99 -2.66 10.98 -3 12 C-4.21386936 8.35839192 -3.6674695 7.66834531 -2.0625 4.3125 C-1.49208984 3.10013672 -1.49208984 3.10013672 -0.91015625 1.86328125 C-0.60980469 1.24839844 -0.30945313 0.63351562 0 0 Z " fill="#4D4D4D" transform="translate(164,329)"/>
<path d="M0 0 C1.2065625 0.0309375 1.2065625 0.0309375 2.4375 0.0625 C2.7675 1.7125 3.0975 3.3625 3.4375 5.0625 C1.7875 5.0625 0.1375 5.0625 -1.5625 5.0625 C-0.30708443 7.57333114 0.93813488 7.93375446 3.4375 9.0625 C1.43795254 9.10504356 -0.56291636 9.10330783 -2.5625 9.0625 C-3.5625 8.0625 -3.5625 8.0625 -3.6875 4.5625 C-3.52762642 0.08603967 -3.52762642 0.08603967 0 0 Z " fill="#494949" transform="translate(314.5625,331.9375)"/>
<path d="M0 0 C2.625 0.375 2.625 0.375 5 1 C5.33 2.32 5.66 3.64 6 5 C4.02 5 2.04 5 0 5 C1.25541557 7.51083114 2.50063488 7.87125446 5 9 C2.625 9.125 2.625 9.125 0 9 C-2 7 -2 7 -2.25 4.5 C-2 2 -2 2 0 0 Z " fill="#444444" transform="translate(249,332)"/>
<path d="M0 0 C1.66611905 -0.042721 3.33382885 -0.04063832 5 0 C6 1 6 1 6.09765625 2.84765625 C6.06510417 4.8984375 6.03255208 6.94921875 6 9 C4.02 9 2.04 9 0 9 C-0.33 7.68 -0.66 6.36 -1 5 C0.65 4.67 2.3 4.34 4 4 C4 3.01 4 2.02 4 1 C2.68 0.67 1.36 0.34 0 0 Z " fill="#1D1D1D" transform="translate(210,332)"/>
<path d="M0 0 C0.66 0 1.32 0 2 0 C2.66 1.65 3.32 3.3 4 5 C4.33 3.35 4.66 1.7 5 0 C5.66 0 6.32 0 7 0 C6.5317879 4.77576339 5.75668002 8.04476345 3 12 C1.68 11.67 0.36 11.34 -1 11 C-0.01 10.67 0.98 10.34 2 10 C1.34 6.7 0.68 3.4 0 0 Z " fill="#343434" transform="translate(347,332)"/>
<path d="M0 0 C0.66 0 1.32 0 2 0 C2.66 1.65 3.32 3.3 4 5 C4.66 3.35 5.32 1.7 6 0 C6.66 0 7.32 0 8 0 C7.52309796 1.62566606 7.04340334 3.25051311 6.5625 4.875 C6.29566406 5.77992188 6.02882813 6.68484375 5.75390625 7.6171875 C5 10 5 10 4 12 C2.68 11.67 1.36 11.34 0 11 C0.99 11 1.98 11 3 11 C2.01 7.37 1.02 3.74 0 0 Z " fill="#2E2E2E" transform="translate(267,332)"/>
<path d="M0 0 C0.66 0 1.32 0 2 0 C2.66 1.65 3.32 3.3 4 5 C4.66 3.35 5.32 1.7 6 0 C6.66 0 7.32 0 8 0 C7.52309796 1.62566606 7.04340334 3.25051311 6.5625 4.875 C6.29566406 5.77992188 6.02882812 6.68484375 5.75390625 7.6171875 C5 10 5 10 4 12 C2.68 11.67 1.36 11.34 0 11 C0.99 11 1.98 11 3 11 C2.01 7.37 1.02 3.74 0 0 Z " fill="#2E2E2E" transform="translate(196,332)"/>
<path d="M0 0 C0.33 0 0.66 0 1 0 C1 2.31 1 4.62 1 7 C2.32 7 3.64 7 5 7 C5 4.69 5 2.38 5 0 C5.66 0 6.32 0 7 0 C7 2.97 7 5.94 7 9 C5.00045254 9.04254356 2.99958364 9.04080783 1 9 C0 8 0 8 -0.09765625 6.15234375 C-0.06510417 4.1015625 -0.03255208 2.05078125 0 0 Z " fill="#2E2E2E" transform="translate(287,332)"/>
<path d="M0 0 C1.2065625 0.0309375 1.2065625 0.0309375 2.4375 0.0625 C1.1175 1.3825 -0.2025 2.7025 -1.5625 4.0625 C-0.5725 4.3925 0.4175 4.7225 1.4375 5.0625 C0.4475 5.0625 -0.5425 5.0625 -1.5625 5.0625 C-1.5625 7.7025 -1.5625 10.3425 -1.5625 13.0625 C-2.2225 13.0625 -2.8825 13.0625 -3.5625 13.0625 C-3.58936553 11.08340602 -3.60883375 9.10421029 -3.625 7.125 C-3.63660156 6.02285156 -3.64820313 4.92070312 -3.66015625 3.78515625 C-3.52747618 0.086036 -3.52747618 0.086036 0 0 Z " fill="#313131" transform="translate(328.5625,327.9375)"/>
<path d="M0 0 C0.66 0 1.32 0 2 0 C2 0.99 2 1.98 2 3 C2.99 3 3.98 3 5 3 C5 3.66 5 4.32 5 5 C4.01 5 3.02 5 2 5 C2 6.98 2 8.96 2 11 C2.99 11.33 3.98 11.66 5 12 C3.35 11.67 1.7 11.34 0 11 C0 7.37 0 3.74 0 0 Z " fill="#363636" transform="translate(257,329)"/>
<path d="M0 0 C2.0625 0.4375 2.0625 0.4375 4 1 C3.01 1 2.02 1 1 1 C1 1.99 1 2.98 1 4 C1.99 4.33 2.98 4.66 4 5 C3.01 5 2.02 5 1 5 C1 7.64 1 10.28 1 13 C0.34 13 -0.32 13 -1 13 C-1.02686553 11.02090602 -1.04633375 9.04171029 -1.0625 7.0625 C-1.07410156 5.96035156 -1.08570313 4.85820312 -1.09765625 3.72265625 C-1 1 -1 1 0 0 Z " fill="#292929" transform="translate(337,328)"/>
<path d="M0 0 C1.98 0.495 1.98 0.495 4 1 C3.01 1 2.02 1 1 1 C1 1.99 1 2.98 1 4 C2.32 4.33 3.64 4.66 5 5 C4.67 6.32 4.34 7.64 4 9 C2.35 9 0.7 9 -1 9 C0.32 8.67 1.64 8.34 3 8 C2.319375 7.4225 1.63875 6.845 0.9375 6.25 C0.298125 5.5075 -0.34125 4.765 -1 4 C-0.75 1.75 -0.75 1.75 0 0 Z " fill="#242424" transform="translate(304,332)"/>
<path d="M0 0 C1.32 0.33 2.64 0.66 4 1 C4 2.65 4 4.3 4 6 C2.68 6.33 1.36 6.66 0 7 C0 4.69 0 2.38 0 0 Z " fill="#E6E6E6" transform="translate(174,333)"/>
<path d="M0 0 C1.32 0.33 2.64 0.66 4 1 C4 2.65 4 4.3 4 6 C2.68 6 1.36 6 0 6 C0 4.02 0 2.04 0 0 Z " fill="#EEEEEE" transform="translate(184,333)"/>
<path d="M0 0 C0 3.63 0 7.26 0 11 C-0.33 11 -0.66 11 -1 11 C-1.33 9.02 -1.66 7.04 -2 5 C-2.99 4.67 -3.98 4.34 -5 4 C-5 3.01 -5 2.02 -5 1 C-2 0 -2 0 0 0 Z " fill="#E1E1E1" transform="translate(343,328)"/>
<path d="M0 0 C0.99 0 1.98 0 3 0 C3 1.98 3 3.96 3 6 C1.68 6 0.36 6 -1 6 C-1.042721 4.33388095 -1.04063832 2.66617115 -1 1 C-0.67 0.67 -0.34 0.34 0 0 Z " fill="#EAEAEA" transform="translate(279,333)"/>
<path d="M0 0 C0.99 0 1.98 0 3 0 C3 1.98 3 3.96 3 6 C1.68 6 0.36 6 -1 6 C-1.042721 4.33388095 -1.04063832 2.66617115 -1 1 C-0.67 0.67 -0.34 0.34 0 0 Z " fill="#EBEBEB" transform="translate(231,333)"/>
<path d="M0 0 C1.32 0 2.64 0 4 0 C4 1.32 4 2.64 4 4 C2.68 4.33 1.36 4.66 0 5 C-0.5625 3.0625 -0.5625 3.0625 -1 1 C-0.67 0.67 -0.34 0.34 0 0 Z " fill="#7D7D7D" transform="translate(210,336)"/>
</svg>
